<svg xmlns="http://www.w3.org/2000/svg" viewBox="0 0 251.87 201.76"><defs><style>.cls-1,.cls-2{fill:none;stroke-miterlimit:10;stroke-width:3px;}.cls-1{stroke:#a6d1cb;}.cls-2{stroke:#6ab3a8;}</style></defs><g id="Layer_2" data-name="Layer 2"><g id="Layer_1-2" data-name="Layer 1"><path class="cls-1" d="M200.11,192.41,26.88,142.34c-7.17-2.08-12.72-12.84-12.72-24.13V51c0-11.29,5.55-21.17,12.72-22.11L200.11,6.28c20.75-2.7,39,12.06,39,33.21V165.4C239.16,186.55,220.86,198.4,200.11,192.41Z"/><g id="Perspective_Text" data-name="Perspective Text"><path d="M21.2,36l4.95-.5v4.16l-1.5.13q1,5.64,1.91,11.34T28.5,62.62l.19,1.75c.17-1.59.38-3.18.62-4.77s.51-3.17.79-4.76.56-3.19.85-4.77.57-3.16.83-4.71c-.17-1-.35-2-.53-3s-.35-2-.52-3l-1.95.17v-4.2l5.2-.52V39l-1.47.13q1,5.79,2,11.62t2,11.77l.2,1.8.2-1.8q1.07-6,2.08-12t2.09-12.17l-1.44.12V34.15l5.54-.56V38L43,38.2q-1.59,9.27-3.16,18.24T36.76,74.33L32.88,51.8l-.22-1.88q-.3,3-.77,6.14c-.32,2.06-.66,4.12-1,6.16s-.75,4.06-1.12,6.06-.73,4-1,5.87q-1.46-8.78-2.9-17.25T23,40l-1.75.15Z"/><path d="M56,60.34l-3.34,2.92-3.28,2.87A5.28,5.28,0,0,0,50.3,68a1.77,1.77,0,0,0,1.34.72q1.13,0,1.86-1.83l1.25,3.45a7,7,0,0,1-1.4,2.22,2.26,2.26,0,0,1-1.71.77,2.69,2.69,0,0,1-1.9-.91A7.68,7.68,0,0,1,48.22,70a18.07,18.07,0,0,1-1-3.53,24.2,24.2,0,0,1-.36-4.3,24.55,24.55,0,0,1,.36-4.28,17.8,17.8,0,0,1,1-3.56,8.1,8.1,0,0,1,1.52-2.43,2.77,2.77,0,0,1,1.9-1,1.92,1.92,0,0,1,1.45.64,6.2,6.2,0,0,1,1.26,1.93,18.08,18.08,0,0,1,1,3A30.07,30.07,0,0,1,56,60.34Zm-4.33-4.76c-.82,0-1.49.62-2,1.79a11.4,11.4,0,0,0-.81,4.35c.75-.65,1.5-1.32,2.25-2s1.51-1.36,2.28-2a6.47,6.47,0,0,0-.77-1.56A1.12,1.12,0,0,0,51.64,55.58Z"/><path d="M58.86,40c-.18-.21-.36-.43-.52-.65s-.33-.44-.51-.66a11.19,11.19,0,0,0,.77-2.94A16.7,16.7,0,0,0,58.66,32q.33-.15.66-.27a6.21,6.21,0,0,0,.66-.28,21.16,21.16,0,0,1-.1,4.66A15,15,0,0,1,58.86,40Z"/><path d="M62,68.39h2V55.57l-1.71.06V51l3.63-.17v.54q.06,1.42.09,2.58c0,.77.06,1.63.1,2.58a15.63,15.63,0,0,1,.8-2.67,12.44,12.44,0,0,1,1-2A6.42,6.42,0,0,1,69,50.55a1.67,1.67,0,0,1,.93-.46L69.77,55c-1.09,0-2,.75-2.62,2.14a11.94,11.94,0,0,0-1,5.18v6.13h1.67v4.72L62,73Z"/><path d="M82.41,59.82,78.53,63l-3.8,3.09a5.49,5.49,0,0,0,1.1,2,2,2,0,0,0,1.55.77c.87,0,1.59-.65,2.16-2L81,70.64A7.58,7.58,0,0,1,79.36,73a2.74,2.74,0,0,1-2,.82,3.25,3.25,0,0,1-2.2-1,8.15,8.15,0,0,1-1.75-2.61,17.07,17.07,0,0,1-1.17-3.79,24.07,24.07,0,0,1-.42-4.63,24.36,24.36,0,0,1,.42-4.6,16.8,16.8,0,0,1,1.17-3.83,8.61,8.61,0,0,1,1.75-2.63,3.39,3.39,0,0,1,2.2-1.05,2.36,2.36,0,0,1,1.69.69,6.68,6.68,0,0,1,1.45,2.07,18.39,18.39,0,0,1,1.14,3.22A32.17,32.17,0,0,1,82.41,59.82Zm-5-5.12c-.95,0-1.73.68-2.32,1.94a11.45,11.45,0,0,0-.94,4.68c.87-.7,1.73-1.42,2.6-2.15S78.47,57.7,79.36,57a6.32,6.32,0,0,0-.89-1.67A1.34,1.34,0,0,0,77.38,54.7Z"/><path d="M111.12,48.73l7.37-.34v5.4l-2.65.09q-1.38,5.53-2.76,10.88t-2.71,10.66l-4.51-17.91-4.41,17.72Q100.15,70,98.88,64.8T96.33,54.51l-2.74.09V49.54l6.48-.3v5.15l-1.13,0c.46,1.9.92,3.78,1.36,5.67s.83,3.81,1.15,5.77c.24-1.49.52-2.94.85-4.37s.68-2.86,1-4.32c.11-.48.22-1,.34-1.46s.23-1,.34-1.46l-1.63.06V49.13l7.28-.33v5.28l-1.91.06c.48,1.94,1,3.87,1.42,5.8s.87,3.9,1.21,5.9q.5-3,1.18-5.94c.45-2,.94-3.94,1.45-5.93l-1.88.06Z"/><path d="M120.92,61.21a23.68,23.68,0,0,1,.55-5.17,18.31,18.31,0,0,1,1.51-4.4,10.14,10.14,0,0,1,2.29-3.07,4.63,4.63,0,0,1,2.88-1.25,3.23,3.23,0,0,1,1.84.47A8,8,0,0,1,131.47,49a7.23,7.23,0,0,1,1,1.26,2.44,2.44,0,0,1,.37.84c0-.52,0-1.06.07-1.63s.08-1.14.08-1.71l2.6-.12V68.69h2.9v5.67l-5.65-.1V71.44a3.38,3.38,0,0,1-.37.78,6.28,6.28,0,0,1-1,1.15,6,6,0,0,1-1.46,1,4,4,0,0,1-1.91.42,4.63,4.63,0,0,1-2.88-1.13,9.24,9.24,0,0,1-2.29-3,17.72,17.72,0,0,1-1.51-4.31A23.4,23.4,0,0,1,120.92,61.21Zm3-.11a12.47,12.47,0,0,0,1.18,5.71c.78,1.55,1.81,2.33,3.08,2.34s2.32-.77,3.13-2.34A12.71,12.71,0,0,0,132.48,61a12.23,12.23,0,0,0-1.22-5.8c-.81-1.5-1.85-2.23-3.13-2.18s-2.3.83-3.08,2.36A12.41,12.41,0,0,0,123.87,61.1Z"/><path d="M141.21,68.72H144V53l-2.75.09v-5.7l6-.28V68.74H150v5.82l-8.83-.15Zm2.39-32a5.64,5.64,0,0,1,.64-2.81c.42-.76.89-1.16,1.42-1.2s1,.29,1.4,1a5.19,5.19,0,0,1,.64,2.74,5.49,5.49,0,0,1-.64,2.79c-.43.73-.89,1.12-1.4,1.15s-1-.29-1.42-1A4.92,4.92,0,0,1,143.6,36.71Z"/><path d="M156.39,28.41l3.49-.31V46.49l4.2-.2v6.16l-4.2.14v16.2l3.21,0v6l-6.7-.12v-22l-3.49.12v-6l3.49-.16Z"/><path d="M167.13,68.82l3.09,0V52.1l-3.09.1V46.15l6.81-.31v23h3.14v6.19l-10-.18Zm2.69-34a5.82,5.82,0,0,1,.71-3,2.21,2.21,0,0,1,1.61-1.29c.57,0,1.09.3,1.57,1a5.17,5.17,0,0,1,.73,2.9,5.49,5.49,0,0,1-.73,3c-.48.78-1,1.19-1.57,1.22a1.83,1.83,0,0,1-1.61-1A5.08,5.08,0,0,1,169.82,34.86Z"/><path d="M194.08,68.93l3.82,0V56.21a8.62,8.62,0,0,0-1-3.79,3.16,3.16,0,0,0-2.75-1.67,4.51,4.51,0,0,0-2.43.82,7.32,7.32,0,0,0-2,2.09,11.55,11.55,0,0,0-1.4,3.11,13.4,13.4,0,0,0-.53,3.89v8.25h3v6.37l-10.54-.19V68.88h3.55V51.66l-3.09.1V45.52l6.56-.3v.72c.06,1.28.12,2.44.17,3.48s.1,2.19.17,3.47a14.16,14.16,0,0,1,3.11-6.25,6.85,6.85,0,0,1,4.83-2.53,5.06,5.06,0,0,1,4.65,2.33,11.89,11.89,0,0,1,1.83,6.6V69h3.17v6.56l-11.18-.2Z"/><path d="M226.9,43.4l8.29-.38v7l-4.38.14V81.23a22.59,22.59,0,0,1-.88,6.47,17.21,17.21,0,0,1-2.41,5.12A11.59,11.59,0,0,1,224,96.13a7.48,7.48,0,0,1-4.3,1A8.39,8.39,0,0,1,215,95.23a27.36,27.36,0,0,1-3.83-3.62l2.92-5.6a18.5,18.5,0,0,0,2.5,2.51,5,5,0,0,0,3,1.29,4.55,4.55,0,0,0,2.61-.66,6.87,6.87,0,0,0,2.08-2A10.1,10.1,0,0,0,225.64,84a15.86,15.86,0,0,0,.48-4v-5.8c.07-.23.15-.47.22-.73s.15-.53.23-.82a4.14,4.14,0,0,1-.73,1.07A8.51,8.51,0,0,1,224.39,75a9.46,9.46,0,0,1-2.08,1.08,7.27,7.27,0,0,1-2.67.43,7.74,7.74,0,0,1-4.27-1.4A12,12,0,0,1,212,71.49a18.82,18.82,0,0,1-2.24-5.22A23.87,23.87,0,0,1,208.9,60a24.35,24.35,0,0,1,.81-6.3A20,20,0,0,1,212,48.3a12.87,12.87,0,0,1,3.42-3.77A7.71,7.71,0,0,1,219.64,43a5.57,5.57,0,0,1,2.75.55,11.41,11.41,0,0,1,2.22,1.41,9,9,0,0,1,1.51,1.54,2.46,2.46,0,0,1,.56,1,19.92,19.92,0,0,1,.11-2A18.41,18.41,0,0,0,226.9,43.4ZM213.28,59.77A12.91,12.91,0,0,0,215,66.7a5.28,5.28,0,0,0,4.6,2.85,5.36,5.36,0,0,0,4.68-2.85,13.12,13.12,0,0,0,1.82-7.12,12.61,12.61,0,0,0-1.82-7.06,5.21,5.21,0,0,0-4.68-2.63,5.5,5.5,0,0,0-4.6,2.9A12.93,12.93,0,0,0,213.28,59.77Z"/><path d="M30,132.27l1.3.27V121L30,120.8v-4.32l1.28.2v-7.61a30.08,30.08,0,0,1,.4-5.25A15.56,15.56,0,0,1,32.73,100a5.91,5.91,0,0,1,1.66-2.26A3.51,3.51,0,0,1,36.5,97v4.31c-1,0-1.84.74-2.48,2.11a14.52,14.52,0,0,0-1,6V117l2.56.4v4.4l-2.56-.44v11.58l1.73.36v4.28L30,136.48Z"/><path d="M37.27,127.84a22.92,22.92,0,0,1,.35-4.09,14.39,14.39,0,0,1,1-3.26A6,6,0,0,1,40,118.42a2.11,2.11,0,0,1,1.79-.58A3.05,3.05,0,0,1,43.61,119a9.13,9.13,0,0,1,1.49,2.58,18.54,18.54,0,0,1,1,3.67,24.48,24.48,0,0,1,.37,4.33,22,22,0,0,1-.37,4.22,14.34,14.34,0,0,1-1,3.3,5.46,5.46,0,0,1-1.49,2,2.07,2.07,0,0,1-1.82.46A3.24,3.24,0,0,1,40,138.34a9.89,9.89,0,0,1-1.43-2.64,20,20,0,0,1-1-3.62A25,25,0,0,1,37.27,127.84Zm1.86.4a14.4,14.4,0,0,0,.21,2.51,11.26,11.26,0,0,0,.55,2.12,5.43,5.43,0,0,0,.83,1.52,1.84,1.84,0,0,0,1,.71,1.2,1.2,0,0,0,1-.28,3.41,3.41,0,0,0,.85-1.19,7.93,7.93,0,0,0,.58-1.92,13.54,13.54,0,0,0,.21-2.47,15,15,0,0,0-.21-2.55,11.29,11.29,0,0,0-.58-2.16,5.41,5.41,0,0,0-.85-1.54,1.72,1.72,0,0,0-1-.67,1.16,1.16,0,0,0-1,.32,3.35,3.35,0,0,0-.83,1.23,9,9,0,0,0-.55,1.94A13.09,13.09,0,0,0,39.13,128.24Z"/><path d="M48.12,136l1.82.38V124.1l-1.59-.27v-4.46l3.35.53v.51c0,.92.06,1.75.09,2.5s.05,1.57.08,2.49a13.22,13.22,0,0,1,.74-2.41,9.23,9.23,0,0,1,1-1.74,4.39,4.39,0,0,1,1-1,1.25,1.25,0,0,1,.85-.27l-.15,4.65c-1-.17-1.81.35-2.41,1.55a10.64,10.64,0,0,0-.91,4.79v5.88l1.54.32v4.53l-5.36-1.19Z"/><path d="M66.36,154.7l2.4.6q.57-2.45,1.15-4.89c.38-1.63.78-3.25,1.18-4.85-.69-3.16-1.36-6.26-2-9.32s-1.32-6.11-2-9.21l-2.22-.38V122l5.93.93v4.76l-1.44-.24q.8,3.44,1.57,6.93t1.31,7c.35-2.19.78-4.35,1.31-6.5s1-4.3,1.59-6.44l-1.72-.29v-4.8l6.42,1v4.89l-2.32-.4c-1.11,4.63-2.2,9.17-3.28,13.65s-2.15,8.91-3.23,13.4l1.34.33V161l-6-1.57Z"/><path d="M81.84,136.26a22.62,22.62,0,0,1,.45-4.64,14.24,14.24,0,0,1,1.24-3.69,6.65,6.65,0,0,1,1.85-2.33,3,3,0,0,1,2.33-.61,4.22,4.22,0,0,1,2.37,1.36,10.51,10.51,0,0,1,1.94,3,19.61,19.61,0,0,1,1.3,4.22,25.92,25.92,0,0,1,.47,5,23.08,23.08,0,0,1-.47,4.81,14.79,14.79,0,0,1-1.3,3.73,6.22,6.22,0,0,1-1.94,2.29,3,3,0,0,1-2.37.45,4.41,4.41,0,0,1-2.33-1.49,11,11,0,0,1-1.85-3.06,20.26,20.26,0,0,1-1.24-4.15A25.09,25.09,0,0,1,81.84,136.26Zm2.41.52a14.69,14.69,0,0,0,.27,2.86,11.22,11.22,0,0,0,.72,2.43,6.34,6.34,0,0,0,1.07,1.76,2.49,2.49,0,0,0,1.34.85,1.66,1.66,0,0,0,1.34-.29,4,4,0,0,0,1.12-1.33,8,8,0,0,0,.75-2.17,13.58,13.58,0,0,0,.28-2.81,15.31,15.31,0,0,0-.28-2.92,12.14,12.14,0,0,0-.75-2.49A6.49,6.49,0,0,0,89,130.9a2.33,2.33,0,0,0-1.34-.8,1.69,1.69,0,0,0-1.34.34,3.7,3.7,0,0,0-1.07,1.38,8.8,8.8,0,0,0-.72,2.19A13.28,13.28,0,0,0,84.25,136.78Z"/><path d="M96,126.86l4.69.74v15.33a9.41,9.41,0,0,0,.63,3.18,2.81,2.81,0,0,0,1.78,1.78,2.23,2.23,0,0,0,1.61-.26,3.92,3.92,0,0,0,1.35-1.39,8.23,8.23,0,0,0,1-2.35,12.63,12.63,0,0,0,.36-3.15V133.9l-2.17-.37v-5.22l4.93.77V149.5l2.09.43v4.71l-4.85-1.07v-3.39l.1-3a9.74,9.74,0,0,1-2.12,4.63,3.22,3.22,0,0,1-3.19,1.17,4.4,4.4,0,0,1-3-2.68,13.33,13.33,0,0,1-1.13-5.5V132.31L96,132Z"/><path d="M135.77,154.22l2.95.61V143.66a9.89,9.89,0,0,0-.75-3.49,3.17,3.17,0,0,0-2.12-1.9,2.81,2.81,0,0,0-1.88.32,4.62,4.62,0,0,0-1.55,1.51,8.6,8.6,0,0,0-1.08,2.5,12.22,12.22,0,0,0-.41,3.32v7.29l2.35.49v5.6l-8.17-1.81V152l2.76.57v-41.4l-2.76-.3V105.4l5.82.54v30l-.11,3.15a10.71,10.71,0,0,1,2.38-4.93,4.66,4.66,0,0,1,3.75-1.5,4.87,4.87,0,0,1,3.58,2.79,13.41,13.41,0,0,1,1.41,6.08v14l2.43.5v5.75l-8.6-1.9Z"/><path d="M162.77,149.28,157,152c-1.87.88-3.74,1.76-5.6,2.62a8.54,8.54,0,0,0,1.62,2.81,4.17,4.17,0,0,0,2.29,1.41c1.28.26,2.34-.31,3.19-1.74l2.16,5a7.12,7.12,0,0,1-2.42,2.41,4,4,0,0,1-2.93.4,6.67,6.67,0,0,1-3.24-1.87,13.5,13.5,0,0,1-2.58-3.7,22.42,22.42,0,0,1-1.72-4.94,26,26,0,0,1-.62-5.73,23,23,0,0,1,.62-5.45,15,15,0,0,1,1.72-4.3,8,8,0,0,1,2.58-2.68,4.57,4.57,0,0,1,5.73.68,11.26,11.26,0,0,1,2.16,2.94,24,24,0,0,1,1.68,4.25A34.56,34.56,0,0,1,162.77,149.28Zm-7.45-7.71a3.21,3.21,0,0,0-3.42,1.67,10.3,10.3,0,0,0-1.39,5.41c1.28-.6,2.56-1.22,3.84-1.85s2.59-1.26,3.9-1.88a9.46,9.46,0,0,0-1.32-2.29A2.65,2.65,0,0,0,155.32,141.57Z"/><path d="M166,160.48l3.34.7v-16.7l-2.9-.5v-6l6.16,1v.7c.05,1.25.11,2.38.15,3.4s.1,2.14.16,3.39a13.4,13.4,0,0,1,1.38-3.22A10.72,10.72,0,0,1,176,140.9a6.59,6.59,0,0,1,1.83-1.31,2.8,2.8,0,0,1,1.59-.31l-.28,6.33a4.24,4.24,0,0,0-4.48,1.91A10.92,10.92,0,0,0,173,154v8l2.86.6v6.16l-9.9-2.18Z"/><path d="M201.05,156.32l-6.78,2.81-6.58,2.74a9.45,9.45,0,0,0,1.9,3.07,5.08,5.08,0,0,0,2.7,1.57,3.41,3.41,0,0,0,3.74-1.83l2.54,5.43a7.61,7.61,0,0,1-2.84,2.57,5,5,0,0,1-3.44.38,8.21,8.21,0,0,1-3.81-2.09,14.85,14.85,0,0,1-3-4.06,23.16,23.16,0,0,1-2-5.38,25.64,25.64,0,0,1-.73-6.21,22.52,22.52,0,0,1,.73-5.89,15.27,15.27,0,0,1,2-4.63,8.78,8.78,0,0,1,3-2.87,5.88,5.88,0,0,1,3.81-.65,5.78,5.78,0,0,1,2.92,1.48,12.44,12.44,0,0,1,2.54,3.22,25,25,0,0,1,2,4.63A36.48,36.48,0,0,1,201.05,156.32Zm-8.76-8.49a3.82,3.82,0,0,0-4,1.77,10.32,10.32,0,0,0-1.63,5.82c1.5-.62,3-1.27,4.5-1.93s3-1.33,4.59-2a10.59,10.59,0,0,0-1.55-2.5A3.27,3.27,0,0,0,192.29,147.83Z"/><path d="M208.19,175.84a3.1,3.1,0,0,1-1.87-1.66,6.54,6.54,0,0,1-.83-3.34,4.61,4.61,0,0,1,.83-2.94,1.86,1.86,0,0,1,1.87-.83,3,3,0,0,1,1.84,1.59,6.3,6.3,0,0,1,.84,3.32,4.79,4.79,0,0,1-.84,3A1.81,1.81,0,0,1,208.19,175.84ZM206,113l4.33.41v49l-4.33-.84Z"/></g><path class="cls-2" d="M207.18,198.61,15.57,145.68C7.63,143.49,1.5,132.11,1.5,120.17V49.06c0-11.94,6.13-22.38,14.07-23.37L207.18,1.84c22.95-2.86,43.19,12.75,43.19,35.1V170.06C250.37,192.42,230.13,205,207.18,198.61Z"/></g></g></svg>